<svg width="559" height="384" viewBox="0 0 559 384" fill="none" xmlns="http://www.w3.org/2000/svg">
<path d="M57.5 179L32.5 320.5H0.5" stroke="#FAF7E1" stroke-opacity="0.3" stroke-width="4"/>
<path d="M60 179L102 340.5V363L117 380.5" stroke="#FAF7E1" stroke-opacity="0.3" stroke-width="4"/>
<path d="M57.5 132V184L166.5 263.5V219L114.5 154.5L57.5 132Z" stroke="#FAF7E1" stroke-opacity="0.3" stroke-width="4"/>
<path d="M117 154.5H216.5L273.5 72.5V37.5M273.5 37.5L216.5 52.5L161.5 22.5L216.5 3L273.5 37.5Z" stroke="#FAF7E1" stroke-opacity="0.3" stroke-width="4"/>
<path d="M270 36L396.5 81M396.5 81L357 212.5M396.5 81L493.5 162.5L535.5 115.5L555.5 133" stroke="#FAF7E1" stroke-opacity="0.3" stroke-width="4"/>
<circle cx="32.5" cy="320.5" r="3.5" fill="white"/>
<circle cx="102.5" cy="362.5" r="3.5" fill="white"/>
<circle cx="102.5" cy="339.5" r="3.5" fill="white"/>
<circle cx="57.5" cy="182.5" r="3.5" fill="white"/>
<circle cx="57.5" cy="132.5" r="3.5" fill="white"/>
<circle cx="115.5" cy="154.5" r="3.5" fill="white"/>
<circle cx="215.5" cy="154.5" r="3.5" fill="white"/>
<circle cx="273.5" cy="72.5" r="3.5" fill="white"/>
<circle cx="273.5" cy="38.5" r="3.5" fill="white"/>
<circle cx="395.5" cy="82.5" r="3.5" fill="white"/>
<circle cx="494.5" cy="161.5" r="3.5" fill="white"/>
<circle cx="536.5" cy="116.5" r="3.5" fill="white"/>
<circle cx="555.5" cy="132.5" r="3.5" fill="white"/>
<circle cx="358.5" cy="210.5" r="3.5" fill="white"/>
<circle cx="116.5" cy="380.5" r="3.5" fill="white"/>
<circle cx="215.5" cy="3.5" r="3.5" fill="white"/>
<circle cx="159.5" cy="22.5" r="3.5" fill="white"/>
<circle cx="218.5" cy="53.5" r="3.5" fill="white"/>
<circle cx="166.5" cy="217.5" r="3.5" fill="white"/>
<circle cx="166.5" cy="263.5" r="3.5" fill="white"/>
</svg>
